<?xml version="1.0" encoding="UTF-8"?>
<svg id="Layer_1" xmlns="http://www.w3.org/2000/svg" version="1.1" viewBox="0 0 1024 1024">
  <!-- Generator: Adobe Illustrator 29.6.1, SVG Export Plug-In . SVG Version: 2.1.1 Build 9)  -->
  <defs>
    <style>
      .st0 {
        fill: #0060a1;
      }
    </style>
  </defs>
  <path class="st0" d="M546.92,478.09L84.67,211.48c101.76-63.35,207.99-119.73,311.79-179.82,82.87-35.42,182.2-34.62,263.45,5.67,97.8,48.49,207.84,117.1,303.2,173.23,4.11,2.42,24.5,15.07,25.34,16.79l1.18,385.25c-5.33,82.41-59.91,180.08-128.85,225.83-79.24,52.6-181.72,105.11-266.19,152.08-15.51,8.63-31.06,18.14-47.68,24.49V478.09h0ZM659.43,766.72v48.92c4.11,6.36,15.93-2.32,21.64-5.26,97.93-50.65,173.79-105.32,193.69-222.13l-1.28-297.29-233.1-136.26c-112.85-54.26-203.53-22.38-302.64,38.4-3.94,2.42-25.63,15.41-25.61,18.38l47.44,28.17c27.26-12.06,53.26-32.85,79.97-45.03,51.84-23.66,124.18-21.81,175.48,5l208.48,119.9,2.35,11.72c-10.41,132.83,41.06,302.97-90.3,389.33-11.03,7.26-74.19,39.25-76.13,46.17h0ZM659.43,613.85c9.79.91,18.05-14.41,23.04-22.21,36.67-57.37,30.87-107.78,28.36-172.27-.51-12.96,4.52-31.72-7.64-38.83-34.96-15.03-70.32-45.58-105.12-58.77-7.25-2.74-46.9-13.66-52.38-13.66h-48.92l-3.36,5.74,4.81,7.5,161.21,93.17v199.35-.03Z"/>
  <path class="st0" d="M55.26,256.72c1.13-1.27,27.1,12.69,30.59,14.65,122.19,68.59,243.26,140.02,364.48,210.35,7.73,4.48,45.21,20.98,45.21,28.16v505.12c-4.24-1.97-8.88-3.11-13.03-5.31-61.58-32.59-126.16-71.49-186.74-106.78-84.81-49.42-155.77-78.83-203.78-170.46-10.62-20.26-28.52-61.29-31.96-83.01-.52-3.31-1.74-12.89,3.81-11.17l307.06,177.27,12.12,1.34v-52.59l-298.41-173.7c-1.03-4.22,3.56-4.7,6.01-6.19,33.91-20.57,70.43-38.33,104.87-58.11l185.05,104.67c3.43-2.41,4.12-54.71.23-60.12L55.25,386.37v-129.64h.01Z"/>
</svg>